<?xml version="1.0" encoding="UTF-8"?>
<!-- Generator: visioncortex VTracer 0.6.3 -->
<svg version="1.1" xmlns="http://www.w3.org/2000/svg" width="1024" height="1024">
<path d="M0,0 L10,1 L18,5 L36,19 L51,31 L68,44 L83,56 L97,67 L111,78 L120,85 L123,86 L128,91 L144,104 L157,114 L172,126 L174,126 L179,131 L191,141 L195,141 L195,144 L209,155 L219,163 L233,174 L243,182 L257,193 L271,204 L275,206 L277,208 L284,214 L300,227 L317,240 L324,245 L331,251 L345,262 L360,274 L377,287 L383,297 L384,302 L384,309 L381,317 L377,323 L369,329 L364,331 L323,331 L323,707 L319,718 L313,725 L303,731 L291,733 L245,733 L244,726 L244,723 L243,718 L243,716 L243,702 L243,698 L243,580 L243,578 L243,524 L243,521 L243,516 L244,512 L243,512 L243,497 L243,496 L244,486 L243,484 L244,475 L243,474 L243,468 L243,466 L243,460 L243,459 L243,453 L245,453 L243,450 L243,444 L245,442 L243,442 L244,437 L245,434 L243,434 L243,395 L244,395 L245,390 L243,390 L243,372 L243,370 L243,364 L243,362 L243,341 L245,341 L243,338 L243,332 L244,328 L243,323 L242,314 L239,308 L237,308 L236,304 L229,298 L223,295 L209,293 L-209,293 L-220,296 L-229,302 L-235,311 L-237,317 L-237,728 L-238,733 L-289,733 L-299,731 L-309,725 L-312,721 L-316,712 L-317,707 L-317,331 L-318,333 L-320,333 L-320,331 L-325,332 L-364,331 L-365,328 L-372,323 L-378,311 L-378,301 L-374,291 L-368,284 L-351,271 L-337,260 L-327,252 L-318,245 L-316,243 L-310,239 L-311,237 L-305,235 L-300,230 L-296,228 L-282,217 L-268,206 L-258,198 L-241,185 L-225,172 L-212,162 L-206,157 L-204,155 L-198,151 L-198,149 L-193,147 L-188,142 L-184,140 L-168,127 L-159,120 L-145,109 L-127,95 L-111,82 L-109,82 L-109,80 L-98,72 L-88,64 L-74,53 L-59,41 L-46,31 L-46,29 L-41,27 L-27,16 L-13,5 L-5,1 Z M244,334 L245,337 Z M244,379 Z M244,398 L244,405 L245,405 L245,398 Z M244,406 L245,409 Z M244,410 L245,413 Z M244,414 L245,417 Z M244,419 Z M244,427 Z M244,430 L245,433 Z M244,446 Z M244,448 Z M244,454 L245,457 Z M244,507 Z M244,518 L245,521 Z M244,536 Z M244,547 Z M244,550 Z M244,575 Z M244,583 L245,585 Z M244,587 L245,589 Z M244,590 Z M244,592 Z M244,595 L245,597 Z M244,599 Z M244,611 Z M244,619 L245,621 Z M244,622 L244,629 L245,629 L245,622 Z M244,634 L245,637 Z M244,642 L245,645 Z M244,679 L245,681 Z M244,682 L245,685 Z M244,695 L245,697 Z M244,707 Z " fill="#000000" transform="translate(509,131)"/>
<path d="M0,0 L1,2 L9,1 L257,1 L264,2 L265,0 L267,0 L267,2 L273,1 L297,1 L320,2 L321,0 L323,1 L337,1 L344,2 L345,0 L345,2 L361,1 L368,2 L369,0 L369,2 L376,2 L384,6 L386,13 L386,107 L383,113 L376,116 L278,117 L276,118 L276,116 L243,117 L212,116 L212,118 L196,116 L196,118 L192,117 L11,117 L-25,116 L-31,113 L-34,109 L-34,9 L-30,4 L-25,2 L0,2 Z M325,44 L317,48 L314,53 L313,61 L316,68 L320,70 L320,72 L325,74 L332,74 L338,70 L341,66 L342,63 L342,55 L340,51 L335,46 L329,44 Z " fill="#000000" transform="translate(336,730)"/>
<path d="M0,0 L105,1 L110,3 L112,3 L114,11 L114,106 L111,112 L107,115 L75,116 L-304,115 L-305,110 L-306,108 L-306,8 L-301,2 L-298,1 Z M51,44 L45,48 L41,56 L42,65 L48,72 L54,74 L61,73 L67,69 L70,63 L70,55 L67,49 L62,45 L59,44 Z M-303,113 Z " fill="#000000" transform="translate(608,453)"/>
<path d="M0,0 L34,0 L43,1 L51,0 L65,0 L68,1 L74,0 L76,1 L82,0 L83,1 L89,0 L315,0 L317,1 L322,0 L322,2 L329,0 L333,1 L337,0 L340,1 L345,0 L360,0 L373,2 L378,8 L379,18 L379,104 L376,110 L372,113 L-34,113 L-40,108 L-41,106 L-41,8 L-37,3 L-32,1 L-13,1 Z M320,42 L313,44 L308,49 L306,57 L308,65 L314,71 L317,72 L324,72 L330,69 L334,64 L335,61 L335,53 L331,46 L326,43 Z " fill="#000000" transform="translate(343,592)"/>
<path d="M0,0 L17,0 L20,1 L26,0 L28,1 L34,0 L35,1 L41,0 L267,0 L268,2 L40,3 L6,3 L-5,2 L-5,1 Z " fill="#000000" transform="translate(391,592)"/>
<path d="M0,0 L2,0 L2,3 L-232,3 L-232,2 L-3,1 Z " fill="#000000" transform="translate(663,592)"/>
<path d="M0,0 L11,0 L11,1 L0,1 Z " fill="#000000" transform="translate(580,847)"/>
<path d="M0,0 L1,0 L1,11 L0,11 Z " fill="#000000" transform="translate(300,668)"/>
<path d="M0,0 L10,0 L10,1 L0,1 Z " fill="#000000" transform="translate(640,847)"/>
<path d="M0,0 L10,0 L10,1 L0,1 Z " fill="#000000" transform="translate(624,847)"/>
<path d="M0,0 L10,0 L10,1 L0,1 Z " fill="#000000" transform="translate(476,847)"/>
<path d="M0,0 L7,0 L7,1 L0,1 Z " fill="#000000" transform="translate(672,847)"/>
<path d="M0,0 L7,0 L7,1 L0,1 Z " fill="#000000" transform="translate(512,847)"/>
<path d="M0,0 L1,0 L1,7 L0,7 Z " fill="#000000" transform="translate(300,793)"/>
<path d="M0,0 L1,0 L1,7 L0,7 Z " fill="#000000" transform="translate(300,785)"/>
<path d="M0,0 L1,0 L1,7 L0,7 Z " fill="#000000" transform="translate(300,777)"/>
<path d="M0,0 L2,3 L1,5 L-1,1 Z " fill="#000000" transform="translate(675,643)"/>
<path d="M0,0 L1,0 L1,7 L0,7 Z " fill="#000000" transform="translate(300,529)"/>
<path d="M0,0 L1,0 L1,7 L0,7 Z " fill="#000000" transform="translate(300,502)"/>
<path d="M0,0 L3,1 L0,4 Z " fill="#000000" transform="translate(304,280)"/>
<path d="M0,0 L1,0 L1,6 L0,6 Z " fill="#000000" transform="translate(300,761)"/>
<path d="M0,0 L1,0 L1,6 L0,6 Z " fill="#000000" transform="translate(300,658)"/>
<path d="M0,0 L1,0 L1,6 L0,6 Z " fill="#000000" transform="translate(300,610)"/>
<path d="M0,0 L1,0 L1,6 L0,6 Z " fill="#000000" transform="translate(300,538)"/>
<path d="M0,0 L1,0 L1,6 L0,6 Z " fill="#000000" transform="translate(300,514)"/>
<path d="M0,0 L5,0 L5,1 L0,1 Z " fill="#000000" transform="translate(564,847)"/>
<path d="M0,0 L1,0 L1,5 L0,5 Z " fill="#000000" transform="translate(300,682)"/>
<path d="M0,0 L1,0 L1,5 L0,5 Z " fill="#000000" transform="translate(300,620)"/>
<path d="M0,0 L1,0 L1,5 L0,5 Z " fill="#000000" transform="translate(300,546)"/>
<path d="M0,0 L5,0 L5,1 L0,1 Z " fill="#000000" transform="translate(620,452)"/>
<path d="M0,0 L4,1 Z " fill="#000000" transform="translate(559,847)"/>
<path d="M0,0 L1,4 Z " fill="#000000" transform="translate(300,828)"/>
<path d="M0,0 L2,1 L0,3 Z " fill="#000000" transform="translate(651,792)"/>
<path d="M0,0 L2,1 L1,3 Z " fill="#000000" transform="translate(672,778)"/>
<path d="M0,0 L2,1 L1,3 Z " fill="#000000" transform="translate(672,656)"/>
<path d="M0,0 L1,4 Z " fill="#000000" transform="translate(300,649)"/>
<path d="M0,0 L1,4 Z " fill="#000000" transform="translate(300,636)"/>
<path d="M0,0 L1,4 Z " fill="#000000" transform="translate(300,497)"/>
<path d="M0,0 L1,4 Z " fill="#000000" transform="translate(300,484)"/>
<path d="M0,0 L1,4 Z " fill="#000000" transform="translate(300,476)"/>
<path d="M0,0 L4,1 Z " fill="#000000" transform="translate(588,452)"/>
<path d="M0,0 L4,1 Z " fill="#000000" transform="translate(532,452)"/>
<path d="M0,0 L3,1 L0,1 Z " fill="#000000" transform="translate(738,430)"/>
<path d="M0,0 L3,0 L2,2 Z " fill="#000000" transform="translate(813,360)"/>
<path d="M0,0 L3,1 L0,1 Z " fill="#000000" transform="translate(390,216)"/>

<path d="M0,0 L3,1 Z " fill="#000000" transform="translate(696,847)"/>
<path d="M0,0 L3,1 Z " fill="#000000" transform="translate(692,847)"/>
<path d="M0,0 L3,1 Z " fill="#000000" transform="translate(688,847)"/>
<path d="M0,0 L3,1 Z " fill="#000000" transform="translate(680,847)"/>
<path d="M0,0 L3,1 Z " fill="#000000" transform="translate(668,847)"/>
<path d="M0,0 L3,1 Z " fill="#000000" transform="translate(664,847)"/>
<path d="M0,0 L3,1 Z " fill="#000000" transform="translate(660,847)"/>
<path d="M0,0 L3,1 Z " fill="#000000" transform="translate(616,847)"/>
<path d="M0,0 L3,1 Z " fill="#000000" transform="translate(608,847)"/>
<path d="M0,0 L3,1 Z " fill="#000000" transform="translate(600,847)"/>
<path d="M0,0 L3,1 Z " fill="#000000" transform="translate(596,847)"/>
<path d="M0,0 L3,1 Z " fill="#000000" transform="translate(592,847)"/>
<path d="M0,0 L3,1 Z " fill="#000000" transform="translate(576,847)"/>
<path d="M0,0 L3,1 Z " fill="#000000" transform="translate(552,847)"/>
<path d="M0,0 L3,1 Z " fill="#000000" transform="translate(536,847)"/>
<path d="M0,0 L3,1 Z " fill="#000000" transform="translate(496,847)"/>
<path d="M0,0 L3,1 Z " fill="#000000" transform="translate(472,847)"/>
<path d="M0,0 L3,1 Z " fill="#000000" transform="translate(464,847)"/>
<path d="M0,0 L3,1 Z " fill="#000000" transform="translate(444,847)"/>
<path d="M0,0 L3,1 Z " fill="#000000" transform="translate(440,847)"/>
<path d="M0,0 L3,1 Z " fill="#000000" transform="translate(436,847)"/>
<path d="M0,0 L3,1 Z " fill="#000000" transform="translate(432,847)"/>
<path d="M0,0 L3,1 Z " fill="#000000" transform="translate(424,847)"/>
<path d="M0,0 L3,1 Z " fill="#000000" transform="translate(408,847)"/>
<path d="M0,0 L3,1 Z " fill="#000000" transform="translate(392,847)"/>
<path d="M0,0 L3,1 Z " fill="#000000" transform="translate(384,847)"/>
<path d="M0,0 L3,1 Z " fill="#000000" transform="translate(376,847)"/>
<path d="M0,0 L3,1 Z " fill="#000000" transform="translate(352,847)"/>
<path d="M0,0 L3,1 Z " fill="#000000" transform="translate(344,847)"/>
<path d="M0,0 L3,1 Z " fill="#000000" transform="translate(328,847)"/>
<path d="M0,0 L2,0 L1,2 Z " fill="#000000" transform="translate(306,845)"/>



<path d="M0,0 L1,2 L-1,1 Z " fill="#000000" transform="translate(673,639)"/>

<path d="M0,0 L2,1 L0,2 Z " fill="#000000" transform="translate(304,594)"/>
<path d="M0,0 L2,1 L0,2 Z " fill="#000000" transform="translate(673,520)"/>
<path d="M0,0 L3,1 Z " fill="#000000" transform="translate(561,452)"/>
<path d="M0,0 L3,1 Z " fill="#000000" transform="translate(247,328)"/>
<path d="M0,0 L3,1 Z " fill="#000000" transform="translate(336,259)"/>
<path d="M0,0 L1,2 L-1,1 Z " fill="#000000" transform="translate(663,240)"/>
<path d="M0,0 L2,0 L1,2 Z " fill="#000000" transform="translate(440,176)"/>
<path d="M0,0 L2,1 L0,2 Z " fill="#000000" transform="translate(472,152)"/>
<path d="M0,0 L2,1 Z " fill="#000000" transform="translate(208,862)"/>
<path d="M0,0 L2,1 Z " fill="#000000" transform="translate(704,847)"/>
<path d="M0,0 L2,1 Z " fill="#000000" transform="translate(685,847)"/>
<path d="M0,0 L2,1 Z " fill="#000000" transform="translate(656,847)"/>
<path d="M0,0 L2,1 Z " fill="#000000" transform="translate(636,847)"/>
<path d="M0,0 L2,1 Z " fill="#000000" transform="translate(620,847)"/>
<path d="M0,0 L2,1 Z " fill="#000000" transform="translate(605,847)"/>
<path d="M0,0 L2,1 Z " fill="#000000" transform="translate(540,847)"/>
<path d="M0,0 L2,1 Z " fill="#000000" transform="translate(520,847)"/>
<path d="M0,0 L2,1 Z " fill="#000000" transform="translate(508,847)"/>
<path d="M0,0 L2,1 Z " fill="#000000" transform="translate(504,847)"/>
<path d="M0,0 L2,1 Z " fill="#000000" transform="translate(492,847)"/>
<path d="M0,0 L2,1 Z " fill="#000000" transform="translate(456,847)"/>
<path d="M0,0 L2,1 Z " fill="#000000" transform="translate(448,847)"/>
<path d="M0,0 L2,1 Z " fill="#000000" transform="translate(400,847)"/>
<path d="M0,0 L2,1 Z " fill="#000000" transform="translate(348,847)"/>
<path d="M0,0 L2,1 Z " fill="#000000" transform="translate(336,847)"/>
<path d="M0,0 L2,1 Z " fill="#000000" transform="translate(320,847)"/>



<path d="M0,0 L2,1 Z " fill="#000000" transform="translate(667,801)"/>




<path d="M0,0 L2,1 Z " fill="#000000" transform="translate(630,730)"/>
<path d="M0,0 L2,1 Z " fill="#000000" transform="translate(478,730)"/>
<path d="M0,0 L2,1 Z " fill="#000000" transform="translate(646,728)"/>
<path d="M0,0 L2,1 Z " fill="#000000" transform="translate(304,703)"/>


<path d="M0,0 L2,1 Z " fill="#000000" transform="translate(669,637)"/>






<path d="M0,0 L2,1 Z " fill="#000000" transform="translate(659,524)"/>





<path d="M0,0 L2,1 Z " fill="#000000" transform="translate(844,463)"/>
<path d="M0,0 L2,1 Z " fill="#000000" transform="translate(683,452)"/>
<path d="M0,0 L2,1 Z " fill="#000000" transform="translate(644,452)"/>
<path d="M0,0 L2,1 Z " fill="#000000" transform="translate(631,452)"/>
<path d="M0,0 L2,1 Z " fill="#000000" transform="translate(628,452)"/>
<path d="M0,0 L2,1 Z " fill="#000000" transform="translate(604,452)"/>
<path d="M0,0 L2,1 Z " fill="#000000" transform="translate(570,452)"/>
<path d="M0,0 L2,1 Z " fill="#000000" transform="translate(567,452)"/>
<path d="M0,0 L2,1 Z " fill="#000000" transform="translate(537,452)"/>
<path d="M0,0 L2,1 Z " fill="#000000" transform="translate(473,452)"/>
<path d="M0,0 L2,1 Z " fill="#000000" transform="translate(433,452)"/>
<path d="M0,0 L2,1 Z " fill="#000000" transform="translate(420,452)"/>
<path d="M0,0 L2,1 Z " fill="#000000" transform="translate(401,452)"/>
<path d="M0,0 L2,1 Z " fill="#000000" transform="translate(376,452)"/>
<path d="M0,0 L2,1 Z " fill="#000000" transform="translate(324,452)"/>

<path d="M0,0 L2,1 Z " fill="#000000" transform="translate(736,429)"/>
<path d="M0,0 L2,1 Z " fill="#000000" transform="translate(886,417)"/>
<path d="M0,0 L2,1 Z " fill="#000000" transform="translate(876,409)"/>
<path d="M0,0 L2,1 Z " fill="#000000" transform="translate(216,352)"/>


<path d="M0,0 L2,1 Z " fill="#000000" transform="translate(344,249)"/>
<path d="M0,0 L2,1 Z " fill="#000000" transform="translate(371,232)"/>
<path d="M0,0 L2,1 Z " fill="#000000" transform="translate(368,232)"/>
<path d="M0,0 L2,1 Z " fill="#000000" transform="translate(377,225)"/>

<path d="M0,0 L2,1 Z " fill="#000000" transform="translate(533,138)"/>





















































































































































































































































































































</svg>
